<?xml version="1.0" standalone="no"?>
<!DOCTYPE svg PUBLIC "-//W3C//DTD SVG 20010904//EN"
 "http://www.w3.org/TR/2001/REC-SVG-20010904/DTD/svg10.dtd">
<svg version="1.0" xmlns="http://www.w3.org/2000/svg"
 width="1024.000000pt" height="1024.000000pt" viewBox="0 0 1024.000000 1024.000000"
 preserveAspectRatio="xMidYMid meet">
<metadata>
Created by potrace 1.11, written by Peter Selinger 2001-2013
</metadata>
<g transform="translate(0.000000,1024.000000) scale(0.100000,-0.100000)"
fill="#000000" stroke="none">
<path d="M265 8646 c-20 -14 -20 -32 -20 -931 0 -896 0 -917 19 -931 17 -12
107 -14 542 -14 287 0 529 3 538 6 26 10 34 70 32 226 -1 126 -4 150 -19 165
-16 16 -46 18 -350 18 l-332 1 0 169 0 169 292 0 c265 1 294 3 310 19 15 15
18 38 18 181 0 146 -2 166 -19 185 -10 11 -21 20 -25 19 -3 0 -135 0 -292 1
l-285 1 1 153 c1 83 3 154 4 157 0 3 142 5 313 4 172 0 321 2 331 4 34 8 40
42 40 209 0 142 -2 166 -18 183 -17 19 -34 19 -539 20 -438 0 -525 -2 -541
-14z"/>
<path d="M5675 8646 c-20 -14 -20 -32 -23 -925 -2 -901 -2 -911 18 -931 19
-19 33 -20 198 -20 167 0 180 1 197 20 17 19 19 43 20 290 0 148 4 272 8 276
3 4 91 8 194 9 164 3 198 6 268 27 279 83 461 314 470 598 4 121 -13 202 -66
310 -84 168 -261 306 -444 343 -103 22 -812 24 -840 3z m782 -411 c152 -62
185 -294 58 -408 -52 -47 -73 -52 -255 -55 l-176 -4 0 239 c0 131 4 240 8 243
4 3 78 5 165 4 125 -1 167 -5 200 -19z"/>
<path d="M8700 8642 l-22 -18 0 -902 c0 -821 1 -904 16 -927 l16 -25 169 0
c192 0 202 4 204 79 1 44 1 44 57 -7 39 -36 138 -81 211 -96 87 -18 227 -12
306 12 203 64 332 194 434 437 39 92 47 333 15 450 -65 237 -225 410 -446 486
-93 31 -257 32 -356 1 -72 -22 -186 -89 -204 -120 -5 -9 -10 -15 -11 -12 -1 3
-3 143 -4 312 -1 284 -2 309 -20 328 -17 19 -30 20 -180 20 -141 0 -166 -2
-185 -18z m810 -883 c80 -25 148 -84 182 -158 26 -56 32 -91 31 -167 -3 -188
-129 -315 -313 -315 -76 0 -94 3 -152 29 -63 28 -122 91 -148 159 -31 79 -31
197 -1 273 22 58 84 131 133 156 71 37 190 47 268 23z"/>
<path d="M2025 8143 c-217 -45 -375 -195 -408 -386 -10 -63 -10 -69 10 -89 20
-20 31 -21 172 -20 82 0 158 3 168 6 10 3 30 26 46 51 32 54 77 77 152 78 89
1 146 -42 162 -122 7 -34 11 -164 6 -174 -3 -4 -23 3 -46 16 -101 59 -272 85
-400 61 -205 -39 -325 -170 -343 -372 -20 -230 108 -400 338 -448 152 -32 304
2 414 93 33 27 41 30 41 16 0 -80 6 -83 194 -83 146 0 161 2 179 20 19 19 20
33 20 454 0 489 -4 529 -67 648 -69 131 -191 216 -368 254 -54 12 -206 10
-270 -3z m231 -879 c100 -50 103 -160 5 -218 -66 -38 -219 -31 -269 13 -77 66
-44 193 57 219 56 15 163 7 207 -14z"/>
<path d="M3350 8145 c-188 -37 -316 -131 -375 -275 -26 -63 -30 -221 -8 -287
22 -64 52 -112 97 -151 73 -63 153 -93 418 -152 120 -26 162 -52 166 -101 3
-30 -2 -41 -28 -63 -32 -26 -55 -31 -143 -28 -66 3 -108 24 -137 72 -14 22
-32 42 -41 45 -15 5 -149 8 -271 6 -78 -1 -92 -17 -84 -90 9 -81 65 -189 127
-245 102 -92 240 -139 409 -140 162 -1 244 15 356 72 149 76 227 215 219 390
-7 150 -65 245 -189 309 -74 38 -118 51 -267 83 -169 36 -215 54 -235 91 -31
61 16 116 107 124 62 5 109 -12 135 -50 59 -83 45 -78 205 -79 79 -1 155 1
169 4 57 14 57 97 1 217 -52 110 -168 201 -307 238 -76 21 -241 26 -324 10z"/>
<path d="M4145 8096 c-15 -22 -13 -32 35 -162 28 -77 55 -148 60 -159 8 -17
89 -231 311 -816 32 -86 59 -163 59 -170 0 -8 -36 -122 -80 -253 -44 -132 -80
-250 -80 -262 0 -13 9 -28 19 -34 12 -6 92 -10 190 -10 162 0 171 1 195 23 20
17 77 181 287 817 145 437 263 797 264 800 1 3 16 52 35 108 l35 104 -24 20
c-23 18 -38 19 -202 16 -162 -3 -179 -5 -192 -22 -8 -11 -31 -74 -52 -140 -20
-67 -50 -161 -65 -211 -16 -49 -50 -156 -75 -237 -25 -82 -48 -148 -50 -148
-2 0 -9 17 -15 38 -6 20 -15 46 -20 57 -5 11 -16 40 -24 65 -8 25 -42 122 -76
215 -34 94 -70 193 -79 222 -9 29 -20 55 -24 59 -4 4 -7 16 -7 26 0 11 -13 33
-29 49 l-29 29 -176 0 c-174 0 -176 0 -191 -24z"/>
<path d="M7224 8112 c-6 -4 -16 -16 -21 -27 -12 -24 -11 -898 1 -960 33 -168
113 -288 233 -348 157 -80 377 -50 495 67 l44 43 1 -39 c1 -73 13 -78 198 -78
140 0 166 2 184 18 l22 17 0 640 1 640 -23 18 c-19 16 -42 18 -185 17 -147 -2
-164 -4 -180 -21 -16 -18 -18 -54 -19 -432 -1 -394 -2 -414 -22 -458 -24 -54
-65 -86 -126 -98 -103 -19 -180 18 -212 102 -14 37 -16 102 -18 461 -2 401 -3
418 -21 432 -15 11 -57 14 -180 14 -89 0 -166 -4 -172 -8z"/>
<path d="M6180 5660 c8 -5 12 -10 8 -11 -5 -1 -12 -3 -18 -4 -5 -1 -13 -3 -17
-4 -5 -1 -2 -5 6 -10 11 -7 9 -10 -8 -16 -11 -3 -21 -11 -21 -16 0 -6 6 -7 13
-4 6 4 1 -2 -13 -13 -13 -11 -29 -18 -34 -15 -5 3 -6 1 -2 -6 6 -9 12 -9 24 1
19 15 -13 -28 -38 -50 -8 -7 -9 -11 -3 -7 9 4 11 1 7 -9 -3 -9 -9 -14 -14 -11
-4 2 -12 -7 -18 -20 -10 -21 -9 -23 6 -19 15 5 15 4 -1 -6 -10 -6 -14 -16 -10
-23 4 -8 1 -7 -9 1 -14 11 -16 10 -11 -6 2 -11 -1 -23 -8 -27 -8 -6 -10 -4 -4
5 5 9 4 11 -4 6 -8 -6 -9 -12 -2 -20 15 -18 1 -28 -17 -13 -13 10 -14 9 -8 -1
11 -18 -3 -52 -22 -52 -14 0 -15 -2 -2 -10 12 -8 12 -10 -3 -16 -9 -3 -14 -10
-11 -15 6 -10 -14 -51 -30 -61 -6 -4 -11 -13 -11 -20 0 -9 -18 -14 -53 -16
-42 -2 -52 0 -47 10 3 7 0 5 -8 -4 -8 -10 -17 -15 -21 -11 -11 11 -50 9 -58
-2 -5 -6 -8 -5 -8 3 0 6 -5 12 -11 12 -5 0 -7 -5 -3 -11 4 -8 1 -8 -13 -1 -12
7 -24 7 -37 0 -14 -8 -17 -7 -12 1 4 6 2 11 -3 11 -6 0 -11 -6 -11 -12 0 -9
-3 -8 -10 2 -8 13 -11 12 -25 -5 -8 -11 -14 -14 -13 -6 2 7 -3 16 -9 18 -7 3
-13 -1 -13 -7 0 -10 -3 -10 -14 -1 -9 8 -16 8 -20 2 -4 -6 -14 -7 -23 -4 -12
5 -14 3 -8 -8 5 -8 -1 -5 -13 5 -16 14 -22 15 -22 6 0 -9 -5 -7 -15 6 -9 12
-13 13 -10 4 4 -12 -2 -16 -24 -15 -16 0 -27 3 -24 7 2 5 -1 8 -6 8 -6 0 -11
-6 -11 -12 -1 -8 -6 -6 -14 5 -12 16 -14 16 -20 2 -4 -12 -10 -13 -24 -6 -14
7 -25 6 -43 -6 -21 -15 -22 -15 -11 -1 10 13 10 17 -3 22 -9 3 -14 2 -11 -3 3
-5 -3 -11 -14 -14 -11 -3 -23 0 -27 5 -4 7 -1 8 7 3 8 -5 11 -4 6 3 -4 6 -13
9 -21 6 -8 -4 -12 -10 -9 -15 3 -5 -7 -4 -21 1 -33 12 -35 12 -35 -1 0 -5 5
-7 12 -3 7 5 8 3 3 -6 -6 -10 -11 -9 -23 6 -10 14 -16 16 -19 6 -4 -10 -10 -9
-26 5 -11 10 -17 12 -12 4 6 -11 2 -13 -19 -7 -21 5 -26 4 -21 -6 4 -7 0 -5
-8 5 -14 17 -15 17 -22 0 -4 -10 -9 -13 -11 -8 -2 6 -22 9 -44 9 -24 -1 -40 3
-41 10 0 6 -4 2 -9 -9 -5 -11 -9 -14 -9 -7 -1 6 -6 12 -12 12 -5 0 -7 -6 -3
-12 4 -7 -3 -4 -16 7 -13 11 -20 15 -17 8 4 -6 3 -14 -3 -18 -5 -3 -10 -2 -10
2 0 5 -18 8 -40 7 -24 -1 -40 3 -40 10 0 8 -2 8 -8 0 -9 -14 -64 -13 -74 1 -5
6 -8 6 -8 -2 0 -7 -7 -10 -17 -6 -12 5 -14 3 -8 -8 7 -11 4 -10 -15 2 -25 16
-55 15 -45 -1 3 -4 -4 -6 -15 -3 -11 3 -17 9 -14 14 3 5 1 9 -4 9 -6 0 -12 -6
-15 -14 -6 -15 -47 -13 -71 2 -17 10 -37 11 -30 1 3 -5 10 -6 16 -3 7 4 8 2 4
-4 -4 -7 -15 -8 -29 -3 -12 4 -28 6 -36 3 -10 -3 -11 0 -5 9 6 11 5 12 -7 2
-17 -14 -81 -14 -73 -1 4 5 -4 4 -16 -4 -18 -10 -24 -10 -27 0 -3 6 -9 10 -13
7 -5 -3 -6 -13 -3 -22 6 -15 5 -16 -9 -3 -9 8 -13 20 -10 25 3 6 -2 4 -11 -4
-9 -7 -17 -10 -17 -5 0 5 -5 2 -10 -6 -8 -13 -10 -12 -10 4 0 19 0 19 -13 1
-11 -14 -16 -15 -22 -5 -6 9 -4 11 5 5 9 -5 11 -4 6 4 -4 6 -13 8 -19 4 -19
-12 -37 -12 -37 -2 0 6 -5 7 -10 4 -6 -4 -7 -12 -3 -18 4 -7 -1 -5 -11 3 -21
16 -49 23 -40 9 3 -5 11 -6 17 -3 7 4 8 3 4 -1 -10 -12 -37 -15 -37 -5 0 4
-10 6 -22 3 -19 -4 -20 -3 -8 6 9 7 10 11 3 11 -6 0 -15 -5 -18 -10 -5 -8 -12
-7 -23 2 -14 11 -15 10 -8 -7 5 -15 4 -17 -5 -8 -6 6 -18 9 -27 6 -11 -5 -13
-3 -7 7 6 10 4 11 -6 4 -20 -12 -39 -14 -39 -3 0 6 -5 7 -10 4 -6 -4 -7 -11
-4 -17 4 -5 -5 -3 -19 6 -20 13 -26 14 -30 4 -4 -10 -8 -10 -16 2 -10 14 -16
7 -11 -15 1 -5 -4 -4 -11 3 -7 6 -17 12 -22 12 -4 0 -5 -6 -1 -12 4 -7 -3 -4
-16 7 -22 19 -23 19 -16 1 5 -14 3 -16 -6 -9 -7 5 -24 8 -38 6 -14 -2 -30 -4
-37 -5 -6 -1 -9 -7 -6 -15 3 -7 -2 -16 -11 -19 -9 -3 -13 -10 -10 -15 3 -5 -1
-9 -8 -9 -10 0 -10 -2 1 -9 10 -6 10 -10 1 -16 -9 -6 -9 -9 0 -15 7 -4 13 -20
13 -35 0 -20 2 -24 9 -14 7 10 11 11 14 2 3 -7 12 -9 20 -6 10 4 12 0 8 -11
-4 -11 -1 -16 10 -16 9 0 16 -4 16 -10 0 -5 7 -10 17 -10 9 0 13 -3 10 -6 -9
-9 45 -50 60 -46 8 2 10 -3 7 -13 -5 -11 -2 -14 10 -9 11 4 16 1 16 -12 0 -16
2 -17 10 -4 6 10 10 11 10 3 0 -7 7 -13 16 -13 8 0 12 -4 9 -10 -3 -5 -1 -10
5 -10 6 0 9 -4 6 -8 -2 -4 5 -14 17 -22 21 -12 21 -12 7 6 -14 18 -13 18 10
-1 42 -33 69 -63 63 -69 -3 -3 4 -4 15 -1 16 3 19 0 15 -13 -6 -15 -4 -15 10
-4 14 12 16 11 12 -6 -3 -15 1 -19 16 -15 11 3 19 0 19 -6 0 -7 -6 -9 -12 -5
-7 4 -9 3 -5 -1 4 -5 15 -10 25 -11 9 -2 18 -8 20 -13 2 -6 10 -11 17 -11 7 0
16 -7 19 -16 3 -9 11 -12 18 -8 7 4 10 4 6 -1 -11 -12 21 -38 39 -31 13 6 14
4 3 -9 -11 -13 -11 -16 1 -13 8 2 13 -3 11 -10 -2 -14 19 -12 31 3 5 6 5 0 2
-12 -5 -20 -3 -23 21 -23 23 0 25 -2 14 -15 -7 -9 -10 -18 -6 -22 3 -3 6 -2 6
3 0 17 40 10 46 -8 3 -10 10 -18 15 -18 6 0 7 -5 4 -10 -4 -6 -1 -9 7 -8 7 2
12 -2 11 -9 -2 -7 4 -10 12 -7 10 4 15 0 16 -12 0 -18 1 -17 9 1 8 19 9 19 9
-4 1 -17 5 -21 17 -17 8 3 12 2 9 -4 -3 -6 -1 -10 5 -10 6 0 8 -5 4 -12 -5 -7
-3 -8 6 -3 8 5 20 -2 34 -18 11 -15 28 -27 36 -29 18 -4 50 -37 50 -52 0 -6 5
-4 10 4 8 13 10 13 10 -1 0 -9 8 -23 18 -30 15 -13 16 -12 3 4 -12 15 -12 17
3 11 15 -6 20 -18 17 -37 -1 -5 3 -6 9 -2 5 3 10 1 10 -5 0 -6 5 -8 10 -5 6 3
10 -2 10 -12 0 -15 2 -16 10 -3 8 13 10 12 10 -3 0 -9 3 -16 8 -16 20 3 32 -2
32 -16 0 -8 7 -15 16 -15 8 0 13 -4 10 -9 -7 -10 22 -25 41 -22 8 1 10 -4 7
-14 -3 -8 -2 -15 4 -15 6 0 13 6 15 13 3 6 6 2 6 -10 1 -13 6 -24 11 -24 6 -1
14 -2 20 -3 5 0 15 -8 22 -16 11 -12 11 -12 -4 -2 -12 10 -18 10 -24 1 -4 -7
-3 -9 4 -5 6 3 14 1 17 -5 4 -5 13 -8 21 -5 8 3 13 2 13 -2 -3 -19 2 -25 11
-12 8 13 10 12 10 -2 0 -10 5 -18 10 -18 6 0 10 -8 10 -17 0 -15 2 -16 10 -3
8 13 10 12 10 -3 0 -10 5 -15 10 -12 6 3 10 1 10 -5 0 -6 5 -8 10 -5 6 3 10 0
10 -8 0 -8 8 -21 18 -28 15 -13 16 -12 3 4 -8 9 -11 20 -9 23 3 3 12 -9 19
-25 12 -26 15 -28 21 -13 6 16 7 16 7 0 1 -10 6 -18 12 -18 5 0 7 -4 4 -10 -3
-5 4 -10 15 -10 15 0 20 -5 17 -14 -4 -10 0 -12 14 -9 11 3 19 0 19 -6 0 -7
-5 -9 -12 -5 -7 4 -8 3 -4 -4 4 -6 13 -9 20 -6 15 6 48 -34 40 -48 -3 -4 0 -8
6 -8 6 0 9 -4 5 -10 -3 -5 -13 -6 -22 -3 -15 6 -16 5 -3 -9 8 -9 20 -13 25
-10 6 3 4 -1 -2 -10 -7 -8 -10 -18 -6 -21 3 -4 0 -7 -8 -7 -10 -1 -9 -4 4 -11
14 -8 16 -14 6 -25 -9 -11 -9 -14 2 -14 8 0 6 -5 -6 -13 -14 -11 -15 -16 -5
-22 9 -6 11 -4 5 5 -6 9 -4 11 4 5 9 -5 9 -11 3 -17 -6 -6 -8 -17 -5 -26 4
-10 2 -13 -5 -8 -8 5 -10 2 -6 -8 3 -9 10 -14 14 -11 5 3 7 -3 5 -12 -2 -10
-4 -22 -4 -26 -1 -5 -5 -5 -11 -2 -6 3 -7 -1 -4 -9 3 -9 11 -13 18 -9 7 5 7 2
-1 -8 -12 -15 -12 -36 0 -56 4 -6 2 -15 -4 -19 -8 -5 -9 -3 -4 6 5 9 4 11 -4
6 -6 -4 -9 -10 -7 -14 2 -4 7 -24 10 -45 5 -29 3 -36 -6 -31 -7 4 -5 -2 5 -13
14 -16 15 -23 6 -29 -8 -5 -10 -3 -4 6 5 8 4 11 -2 7 -6 -4 -8 -18 -5 -33 3
-20 7 -23 14 -12 7 10 8 8 4 -5 -3 -10 -6 -21 -6 -23 0 -3 -4 -3 -9 0 -4 3 -6
-6 -3 -19 2 -14 8 -28 13 -30 12 -8 -1 -36 -15 -30 -6 3 -4 0 5 -6 16 -12 16
-14 0 -28 -9 -9 -12 -13 -5 -8 8 5 10 -1 6 -19 -4 -21 -2 -25 9 -19 11 6 12 5
2 -6 -14 -14 -18 -53 -5 -45 5 3 9 -1 9 -9 0 -8 -8 -12 -21 -9 -19 3 -20 2 -4
-10 12 -9 14 -16 7 -23 -8 -8 -7 -13 2 -18 8 -6 10 -4 4 6 -5 8 -4 11 0 6 5
-4 9 -16 10 -27 1 -15 -2 -17 -11 -9 -8 7 -14 6 -20 -2 -5 -8 -3 -9 6 -4 10 6
12 4 7 -9 -4 -9 -3 -15 2 -12 5 3 11 -1 14 -9 4 -10 1 -12 -11 -8 -15 6 -15 5
-3 -10 12 -15 12 -19 -3 -30 -16 -12 -16 -14 -2 -26 19 -16 22 -35 4 -25 -7 4
-5 -2 5 -14 19 -20 18 -21 -5 -16 -20 5 -21 4 -5 -6 9 -6 17 -16 17 -21 0 -6
-5 -7 -12 -3 -7 5 -8 3 -3 -7 5 -7 8 -26 7 -42 -1 -16 1 -26 6 -23 5 3 9 -1 9
-8 0 -8 -8 -12 -21 -9 -19 4 -19 3 -3 -7 9 -6 17 -16 17 -21 0 -6 -5 -7 -11
-3 -8 5 -9 2 -1 -11 6 -11 6 -30 1 -47 -4 -16 -4 -26 0 -23 5 2 8 -12 7 -33
-1 -22 -7 -40 -16 -44 -12 -5 -12 -7 3 -7 19 -1 24 -21 5 -22 -7 0 -4 -4 7 -9
16 -7 17 -9 3 -9 -9 -1 -20 -6 -23 -11 -4 -6 -1 -9 6 -8 6 2 14 -3 17 -11 3
-9 0 -11 -8 -6 -9 6 -9 3 -1 -13 15 -28 14 -32 -6 -25 -15 5 -14 3 2 -10 12
-10 15 -16 7 -17 -8 0 -10 -5 -5 -13 4 -6 6 -20 5 -30 -2 -10 2 -25 9 -33 6
-8 9 -17 5 -21 -3 -3 -6 -1 -6 5 0 7 -4 12 -10 12 -5 0 -7 -6 -5 -12 10 -27
12 -88 3 -88 -5 0 -6 -6 -2 -12 11 -18 12 -48 2 -48 -5 0 -6 -5 -2 -12 5 -8 2
-9 -10 -5 -10 4 -15 3 -11 -3 3 -6 1 -10 -5 -10 -6 0 -8 -5 -4 -11 4 -7 -1 -7
-16 1 -19 10 -22 10 -18 -1 4 -10 -4 -15 -25 -16 -17 -1 -34 -8 -39 -15 -6
-10 -8 -10 -8 0 0 7 -5 10 -10 7 -6 -4 -7 -12 -3 -18 4 -7 0 -6 -10 2 -12 9
-17 10 -17 2 0 -7 -4 -10 -9 -7 -5 3 -12 -1 -15 -10 -5 -13 -9 -14 -21 -4 -12
10 -15 10 -15 0 0 -7 -8 -10 -20 -7 -11 3 -20 1 -20 -5 0 -5 -4 -6 -10 -3 -6
4 -7 -1 -3 -11 5 -13 3 -15 -8 -9 -7 5 -22 10 -31 10 -13 1 -15 -2 -7 -11 8
-10 6 -12 -10 -9 -12 2 -21 -1 -21 -7 0 -6 -11 -8 -25 -6 -14 3 -28 1 -32 -5
-4 -6 -1 -7 8 -2 8 5 10 4 6 0 -12 -14 -41 -15 -49 -2 -5 7 -8 2 -9 -13 0 -14
-3 -20 -6 -13 -5 13 -28 4 -65 -25 -14 -11 -18 -11 -27 5 -10 17 -10 17 -11
-1 0 -12 -5 -16 -16 -12 -8 3 -12 2 -9 -4 3 -6 -1 -10 -10 -10 -10 0 -14 5
-10 13 4 6 -2 2 -12 -11 -15 -18 -21 -20 -31 -10 -9 9 -12 8 -12 -7 0 -15 -2
-17 -9 -7 -6 11 -10 10 -15 -3 -5 -15 -9 -15 -23 -4 -9 8 -14 9 -11 4 4 -6 -2
-17 -14 -24 -11 -7 -17 -8 -13 -2 3 6 1 11 -4 11 -6 0 -11 -5 -11 -11 0 -8 -5
-7 -15 1 -13 11 -14 10 -8 -5 5 -14 3 -17 -9 -12 -10 3 -19 -1 -22 -10 -4 -11
-10 -12 -19 -5 -8 6 -18 3 -32 -11 -12 -11 -14 -17 -5 -13 12 6 11 4 -1 -6 -9
-7 -14 -23 -12 -37 2 -13 -2 -31 -9 -39 -10 -12 -10 -14 0 -8 7 4 12 1 12 -8
0 -10 9 -16 26 -16 17 0 23 -4 18 -12 -5 -7 -2 -9 8 -5 9 3 21 0 28 -6 9 -9
11 -9 7 -1 -4 7 0 14 8 18 8 3 15 0 15 -6 0 -6 3 -8 7 -5 3 4 13 1 21 -6 10
-8 13 -8 9 -1 -4 7 0 15 9 18 22 9 24 8 25 -11 0 -10 3 -13 5 -6 3 7 12 9 21
6 10 -4 14 -2 10 4 -3 5 1 10 9 10 9 0 13 -6 9 -16 -4 -11 0 -10 16 5 12 10
19 13 15 6 -8 -13 19 -12 58 4 16 6 18 4 13 -11 -6 -15 -5 -16 8 -5 8 7 15 9
15 4 0 -5 5 -2 10 6 7 10 10 11 10 2 0 -12 38 -11 60 3 5 3 10 1 10 -6 0 -8 5
-7 17 2 11 10 14 10 9 1 -4 -7 -1 -12 9 -12 9 0 14 4 11 8 -3 5 1 9 9 9 8 0
12 -4 9 -9 -6 -10 26 -6 45 6 9 6 12 5 8 -1 -4 -6 0 -14 9 -17 8 -3 12 -2 9 3
-3 5 -1 12 5 16 5 3 10 1 10 -4 0 -6 5 -11 11 -11 5 0 7 6 3 13 -5 8 -2 8 9
-2 9 -7 17 -10 17 -5 0 5 8 0 16 -11 16 -20 16 -20 10 0 -5 16 -1 21 13 21 11
0 17 -4 15 -8 -6 -9 26 -6 43 5 6 4 15 2 19 -4 5 -8 3 -9 -6 -4 -9 5 -11 4 -6
-4 6 -9 11 -9 22 0 8 6 14 8 14 4 0 -4 6 -2 14 4 11 10 17 8 25 -6 10 -17 10
-17 11 2 1 12 4 15 7 7 4 -10 8 -10 21 0 9 8 13 8 9 2 -4 -7 0 -15 9 -18 9 -3
12 -2 9 4 -4 7 5 9 25 5 24 -4 30 -2 24 7 -6 10 -4 11 7 1 17 -17 43 -17 33 0
-5 8 -2 7 10 -2 13 -11 20 -11 28 -3 7 7 17 12 22 12 6 0 4 -5 -4 -11 -11 -7
-7 -9 17 -5 17 2 38 8 45 12 9 5 8 2 -2 -11 -14 -17 -13 -18 5 -8 11 5 27 9
35 8 8 -1 24 3 35 8 18 10 19 9 5 -8 -14 -17 -14 -17 6 -7 16 8 24 8 34 -1 10
-9 11 -9 6 1 -5 9 2 11 28 6 23 -3 36 -1 36 6 0 6 5 8 10 5 6 -4 8 -12 4 -18
-3 -7 1 -4 8 5 13 15 15 15 26 0 7 -9 10 -11 7 -4 -5 9 1 11 21 8 15 -3 35 0
43 7 11 9 13 9 8 0 -9 -15 32 -14 52 1 11 8 13 8 8 0 -4 -7 3 -14 18 -17 14
-2 28 0 32 6 4 6 1 7 -8 2 -8 -5 -10 -4 -6 0 10 12 38 15 31 4 -8 -13 30 -11
43 2 8 8 13 7 18 -2 6 -8 4 -10 -5 -4 -9 5 -11 4 -6 -4 6 -9 11 -9 22 0 11 9
14 9 14 0 0 -7 5 -9 10 -6 6 4 8 11 5 16 -3 5 1 6 9 3 9 -3 13 -11 9 -18 -3
-6 4 -2 16 9 22 19 23 19 36 2 10 -13 14 -15 17 -5 4 10 9 10 23 -2 17 -14 18
-13 12 4 -6 14 -4 16 5 9 7 -5 22 -9 33 -8 11 0 28 -3 39 -8 12 -6 16 -5 12 1
-4 7 6 9 30 5 30 -5 36 -3 29 8 -7 12 -6 12 7 1 17 -14 34 -1 23 18 -3 6 1 7
9 4 11 -4 16 0 16 13 0 10 5 24 11 30 8 8 7 13 -2 18 -8 6 -10 4 -4 -5 5 -8 4
-11 -2 -7 -6 4 -8 18 -5 32 3 18 0 25 -12 25 -9 0 -16 5 -16 10 0 6 -9 10 -21
10 -11 0 -17 5 -14 10 3 6 -1 10 -10 10 -10 0 -14 -5 -10 -12 4 -7 0 -5 -8 5
-16 20 -31 23 -22 5 4 -7 -1 -4 -9 6 -12 15 -16 16 -16 5 -1 -10 -3 -9 -11 4
-6 9 -14 15 -19 12 -5 -3 -25 4 -44 14 -31 18 -34 18 -30 3 4 -12 1 -11 -8 3
-8 13 -21 19 -32 17 -12 -3 -16 0 -11 8 6 9 2 9 -15 0 -15 -8 -20 -8 -16 -1 4
6 2 12 -3 12 -26 3 -30 4 -37 11 -4 5 -18 8 -31 8 -13 0 -26 7 -30 16 -4 11
-8 12 -13 4 -5 -8 -11 -7 -23 4 -18 18 -31 21 -22 5 4 -6 -2 -5 -13 2 -12 7
-18 17 -15 23 4 5 1 6 -6 2 -7 -5 -21 0 -33 11 -12 10 -18 13 -15 6 5 -8 0
-11 -13 -10 -11 1 -20 4 -20 8 0 4 -7 10 -16 13 -12 5 -15 2 -10 -11 5 -16 4
-16 -9 1 -8 10 -12 22 -10 26 2 4 -7 5 -20 2 -17 -3 -27 1 -32 14 -6 16 -7 16
-14 -2 -7 -18 -8 -18 -8 1 -1 17 -3 17 -11 5 -7 -10 -10 -11 -10 -2 0 8 -9 11
-25 8 -14 -3 -23 -1 -20 5 4 5 0 9 -8 9 -8 0 -17 6 -20 14 -3 8 -16 12 -31 11
-14 -2 -26 1 -26 6 0 4 -7 6 -16 2 -14 -5 -15 -3 -5 15 8 15 8 23 -1 28 -7 5
-8 3 -3 -7 5 -8 4 -11 0 -6 -11 9 -14 48 -4 42 4 -3 9 2 13 10 3 8 0 17 -6 21
-7 4 -8 3 -4 -4 5 -8 1 -10 -9 -5 -12 4 -13 8 -5 13 7 4 10 12 6 18 -3 6 -1
14 5 18 7 4 9 3 5 -4 -3 -6 -2 -13 3 -16 5 -4 8 1 7 10 -1 8 -9 20 -17 25 -8
5 -9 9 -4 9 11 0 11 162 0 179 -3 5 0 13 6 17 7 4 9 3 5 -4 -3 -6 -3 -13 2
-16 4 -2 8 6 8 19 0 13 -4 21 -8 19 -13 -8 -9 31 5 45 6 7 8 12 2 11 -21 -4
-30 1 -17 9 7 4 15 20 16 34 2 15 0 24 -4 22 -4 -3 -10 4 -13 15 -3 11 0 23 5
27 7 4 8 1 3 -7 -6 -9 -4 -11 4 -6 9 6 8 13 -6 29 -10 12 -12 17 -4 12 11 -6
13 -4 8 7 -3 9 0 21 6 28 7 8 8 10 1 7 -7 -4 -11 7 -12 29 -1 25 2 33 11 27 8
-5 8 -2 -1 9 -9 11 -10 18 -2 23 5 3 10 12 10 18 0 7 -4 6 -10 -3 -7 -11 -9
-5 -7 22 2 21 6 41 10 44 14 14 7 26 -8 14 -13 -11 -14 -10 -9 4 3 9 11 16 18
16 6 0 5 4 -3 9 -13 8 -13 12 0 27 9 11 9 15 2 10 -7 -4 -13 -3 -13 3 0 5 5
13 10 16 6 3 10 12 10 18 0 7 -4 6 -10 -3 -8 -13 -10 -13 -10 2 0 9 5 29 10
43 9 24 8 27 -7 21 -15 -5 -15 -4 1 9 12 9 15 15 7 15 -7 0 -11 6 -8 14 3 7 0
19 -6 25 -9 9 -8 11 7 5 16 -6 17 -4 8 13 -8 15 -8 23 1 33 9 10 9 11 0 6 -8
-5 -13 -1 -13 9 0 9 4 14 8 11 5 -3 9 1 9 9 0 8 -4 12 -9 9 -4 -3 -8 2 -8 11
0 9 4 14 8 11 5 -3 9 1 9 9 0 8 -4 12 -8 9 -4 -2 -6 24 -5 58 2 35 -1 71 -5
80 -6 11 -5 19 3 24 7 4 8 3 4 -4 -4 -7 -3 -12 3 -12 5 0 9 9 8 20 -1 14 -6
19 -16 15 -10 -4 -9 1 5 16 13 16 15 23 7 26 -7 3 -13 11 -13 19 0 9 5 12 10
9 6 -3 10 -1 10 4 0 6 -5 11 -12 11 -9 0 -9 3 0 12 15 15 15 28 1 28 -5 0 -7
-5 -3 -12 5 -7 3 -8 -5 -4 -9 6 -8 13 5 27 17 18 16 20 -1 33 -18 13 -18 14 1
24 14 8 15 12 4 12 -13 0 -13 1 0 10 10 6 11 10 3 10 -7 0 -13 7 -13 16 0 8 5
12 10 9 6 -3 10 -1 10 4 0 6 -6 11 -12 11 -9 0 -8 4 2 10 14 9 7 14 -13 11 -4
-1 0 10 8 23 11 16 13 26 6 31 -15 9 -14 28 2 19 9 -5 9 -4 0 6 -8 9 -9 19 -2
32 7 13 6 18 -3 19 -7 1 -2 4 12 8 14 4 24 13 22 20 -1 7 2 10 8 6 5 -3 10 -1
10 4 0 6 5 11 11 11 5 0 7 -5 3 -12 -4 -7 -3 -8 4 -4 6 4 9 13 5 21 -3 11 2
15 17 15 16 0 21 4 16 16 -6 15 -4 15 11 3 10 -8 14 -9 10 -2 -8 12 25 36 37
28 3 -3 4 -2 1 1 -7 10 36 45 47 38 4 -3 7 0 6 8 -2 7 3 12 10 10 6 -1 12 5
12 14 0 9 5 12 12 8 8 -5 9 -1 4 12 -5 15 -4 16 5 7 16 -16 55 19 43 39 -6 10
-5 10 7 2 10 -8 18 -6 31 7 9 9 14 20 11 23 -3 3 6 8 21 12 16 4 23 11 19 18
-4 6 1 5 10 -3 16 -12 17 -12 11 5 -4 10 -4 16 0 12 9 -7 52 33 48 45 -1 4 7
3 19 -4 15 -8 19 -8 15 0 -4 6 -3 11 3 11 5 0 13 9 16 20 8 25 26 27 20 3 -3
-10 1 -4 9 12 8 17 20 30 28 30 7 1 12 7 10 15 -3 11 0 11 14 -1 16 -12 17
-12 11 5 -6 15 -3 17 12 13 13 -3 18 -1 15 8 -3 7 0 16 7 21 8 5 10 3 4 -7 -8
-12 -6 -12 8 0 9 7 14 17 11 22 -3 5 -2 9 3 8 21 -4 33 2 33 17 0 8 5 12 10 9
6 -4 7 -11 4 -17 -4 -7 -2 -8 4 -4 6 4 8 14 5 23 -4 11 -3 14 5 9 8 -4 12 0
12 11 0 15 2 16 10 3 8 -12 10 -10 10 10 0 20 2 22 10 10 6 -10 10 -11 10 -2
0 6 7 12 16 12 10 0 14 6 11 15 -4 8 -1 17 5 21 7 4 8 3 4 -4 -4 -7 -2 -12 3
-12 6 0 11 5 11 11 0 5 5 7 10 4 6 -4 9 -1 8 7 -2 7 3 12 10 11 10 -3 16 9 14
28 -1 4 6 6 16 5 9 0 16 4 15 11 -2 7 6 10 17 8 13 -3 18 0 14 7 -5 7 -2 9 9
5 11 -4 14 -2 10 9 -3 9 2 14 17 14 18 0 20 3 11 14 -10 12 -8 13 8 9 13 -3
23 0 27 11 3 9 10 13 15 10 5 -3 13 6 19 20 5 14 12 26 15 26 4 0 3 -4 0 -10
-3 -5 -1 -10 4 -10 11 0 15 15 12 34 -1 5 4 5 11 -1 18 -15 54 15 51 42 -1 11
0 14 3 8 8 -17 24 -16 24 1 0 16 27 29 41 21 5 -4 6 1 3 9 -7 19 7 21 26 4 12
-11 12 -10 2 3 -11 15 -8 20 23 39 19 12 35 26 35 31 0 6 5 7 10 4 6 -3 10 1
10 9 0 9 5 16 11 16 5 0 7 -6 4 -12 -4 -7 2 -2 13 12 11 13 18 29 14 35 -3 5
2 4 11 -4 17 -13 22 -7 19 20 -1 4 6 6 16 5 9 0 16 4 15 11 -1 6 8 10 22 8 22
-2 23 0 13 13 -10 13 -10 14 0 8 6 -4 12 -3 12 3 0 6 8 7 18 4 15 -6 15 -5 3
11 -8 9 -10 16 -5 15 25 -4 45 2 38 13 -5 7 0 9 14 6 14 -4 19 -2 16 7 -3 7 0
16 5 20 6 3 8 11 5 17 -4 6 -2 8 4 4 6 -3 13 -2 17 4 3 5 1 10 -5 10 -6 0 -8
5 -5 10 4 6 12 7 18 3 7 -3 4 3 -6 14 -9 11 -14 23 -10 26 3 4 -2 7 -13 7 -16
0 -17 2 -4 10 12 8 11 10 -7 10 -13 0 -23 4 -23 9 0 13 -70 11 -70 -2 -1 -7
-7 -1 -14 12 -9 17 -15 20 -18 10 -5 -16 -49 -19 -60 -4 -4 6 -8 2 -8 -8 0
-17 -1 -17 -17 -1 -11 11 -18 13 -21 5 -2 -6 -8 -11 -13 -11 -6 0 -8 4 -4 9 3
6 -6 7 -23 2 -16 -5 -36 -5 -45 1 -13 7 -17 5 -17 -9 0 -13 -3 -14 -8 -5 -10
15 -92 13 -92 -2 -1 -6 -8 0 -16 14 -8 14 -13 18 -10 8 4 -14 0 -15 -26 -8
-26 8 -28 7 -17 -6 10 -12 9 -13 -5 -8 -9 3 -16 9 -16 13 0 10 -50 7 -50 -4 0
-5 -7 -1 -15 9 -11 14 -15 16 -15 5 0 -9 -12 -14 -35 -15 -30 0 -33 2 -22 15
11 14 10 14 -5 2 -10 -7 -24 -11 -32 -8 -8 3 -17 1 -20 -6 -3 -9 -5 -9 -5 0
-1 7 -7 10 -15 7 -7 -3 -16 2 -20 11 -4 11 -2 14 6 9 8 -5 9 -2 5 10 -6 14 -3
17 8 12 9 -3 13 -2 10 3 -3 5 -1 13 5 16 8 5 8 11 0 20 -10 12 -8 13 10 10 19
-4 20 -2 8 12 -11 15 -11 16 5 10 15 -6 16 -4 6 15 -10 18 -9 20 5 15 10 -4
16 -2 15 6 -3 24 1 37 12 37 5 0 7 -6 3 -12 -5 -10 -3 -10 7 0 12 11 12 14 -1
22 -14 9 -7 14 14 11 4 -1 5 11 2 26 -5 21 -4 24 4 13 9 -13 14 -8 11 12 0 4
8 12 19 18 12 7 17 16 13 27 -5 12 -3 14 8 8 12 -8 12 -6 0 9 -8 9 -10 16 -5
14 5 -2 10 1 11 5 1 5 10 15 20 23 12 8 13 13 5 14 -7 0 -10 5 -7 10 4 6 11 8
16 5 5 -3 6 1 3 9 -3 9 -11 13 -18 9 -7 -5 -7 -2 1 8 15 19 11 52 -8 57 -11 3
-11 1 1 -7 13 -9 13 -11 -2 -11 -11 0 -18 7 -18 18 0 20 -33 24 -59 8 -9 -6
-12 -5 -8 0 3 6 -4 11 -16 11 -17 2 -19 0 -7 -7z m-2181 -652 c1 6 6 12 12 12
5 0 7 -5 3 -11 -4 -8 0 -8 15 0 16 9 21 9 21 -1 1 -8 5 -7 14 5 13 17 32 25
22 9 -2 -4 4 -13 15 -20 14 -9 18 -9 17 -1 -2 6 9 12 25 13 15 1 27 -3 27 -9
0 -7 3 -7 8 0 10 15 38 12 34 -4 -1 -7 2 -9 8 -6 6 4 9 14 5 22 -4 13 -3 14
10 3 9 -7 25 -10 41 -6 18 5 24 3 19 -5 -5 -8 -1 -7 15 1 21 11 22 10 16 -6
-6 -18 -5 -18 8 -1 15 19 31 24 20 6 -5 -8 -2 -9 11 -2 10 6 32 7 51 3 27 -6
36 -4 44 9 8 14 9 14 10 -4 0 -17 2 -17 10 -5 9 13 10 13 11 0 0 -10 3 -8 9 5
8 19 9 19 9 -3 1 -21 2 -22 17 -8 12 12 20 13 35 6 14 -8 19 -7 19 2 0 9 3 9
10 -2 5 -8 10 -10 10 -4 0 7 11 11 24 10 13 0 21 -5 18 -11 -3 -5 2 -4 11 4
14 11 17 11 18 0 0 -8 4 -5 9 6 7 16 9 17 9 3 1 -9 5 -20 11 -23 6 -4 7 1 3
12 -6 16 -5 16 16 -1 14 -13 20 -15 16 -5 -4 11 5 14 47 12 29 -1 53 -2 53 -3
0 -1 8 -3 18 -5 9 -2 17 2 17 8 0 8 3 8 12 -1 9 -9 14 -7 25 6 11 15 12 15 7
1 -3 -10 0 -20 7 -25 8 -4 10 -3 5 4 -5 9 9 12 48 12 33 0 56 5 58 12 3 7 7 5
11 -6 4 -10 3 -15 -3 -11 -6 3 -10 4 -10 1 0 -17 22 -13 29 6 7 16 10 18 10 6
1 -14 6 -15 31 -8 25 7 30 6 31 -8 1 -15 2 -14 6 1 4 14 8 16 19 6 8 -6 14 -7
14 -2 0 5 24 6 55 3 30 -3 55 -4 55 -1 0 4 29 6 64 6 35 0 62 -3 59 -7 -2 -5
1 -8 6 -8 6 0 11 5 11 11 0 7 11 4 26 -6 15 -9 23 -12 20 -6 -5 7 3 11 21 12
120 4 146 3 151 -5 3 -5 -1 -6 -8 -1 -9 6 -11 4 -5 -5 6 -10 10 -10 19 2 9 12
15 13 30 4 14 -8 20 -8 23 2 4 10 10 9 24 -4 19 -17 20 -17 13 0 -7 18 -6 18
22 0 26 -17 28 -17 15 -1 -12 15 -12 17 3 11 17 -7 19 -14 10 -38 -3 -9 -10
-13 -15 -10 -5 3 -6 -2 -3 -10 3 -9 1 -16 -6 -16 -6 0 -8 -5 -4 -12 5 -8 2 -9
-10 -5 -14 6 -15 4 -5 -16 6 -12 8 -19 4 -15 -11 11 -38 -29 -29 -44 4 -6 3
-8 -3 -5 -6 4 -14 -4 -17 -18 -4 -14 -11 -25 -16 -25 -6 0 -10 -5 -10 -11 0
-5 6 -7 13 -3 6 4 8 3 4 -1 -4 -5 -14 -10 -22 -12 -35 -7 -41 -9 -54 -17 -10
-6 -12 -5 -7 2 9 15 -9 15 -35 2 -11 -6 -19 -7 -19 -1 0 5 -7 11 -14 14 -10 4
-13 1 -10 -7 3 -7 -2 -13 -11 -13 -9 0 -14 5 -12 12 7 15 -49 11 -70 -7 -14
-11 -16 -11 -11 3 5 12 -1 15 -35 12 -22 -2 -46 -8 -54 -15 -7 -6 -16 -8 -20
-4 -3 3 -1 6 5 6 7 0 12 5 12 10 0 7 -6 7 -19 1 -10 -6 -21 -8 -24 -5 -8 9
-66 11 -61 3 2 -4 -3 -10 -12 -13 -8 -3 -12 -2 -9 4 3 6 -1 10 -10 10 -9 0
-13 -5 -9 -11 3 -6 -5 -4 -18 5 -14 9 -28 13 -31 10 -9 -9 -91 -9 -106 0 -6 4
-11 2 -11 -4 0 -7 -7 -7 -22 1 -21 11 -22 11 -9 -4 17 -21 8 -22 -13 -1 -9 8
-16 11 -16 6 0 -15 -28 -23 -36 -10 -4 6 -3 8 4 4 6 -3 13 -3 16 2 2 4 -6 8
-20 8 -13 0 -24 -3 -24 -6 0 -10 -44 -6 -52 5 -5 6 -8 5 -8 -4 0 -11 -3 -11
-15 -1 -12 10 -15 10 -15 -2 0 -8 -7 -15 -15 -15 -11 0 -12 3 -3 14 9 11 7 12
-14 4 -19 -7 -29 -6 -42 7 -12 12 -16 13 -14 3 2 -7 -3 -16 -11 -19 -8 -2 -11
0 -8 5 6 9 -4 9 -85 -1 -21 -2 -36 -1 -34 2 2 4 -7 7 -20 7 -13 0 -24 -3 -24
-7 0 -5 -5 -8 -11 -8 -5 0 -8 4 -5 8 3 5 -18 5 -45 2 -40 -5 -49 -4 -45 7 3 8
1 11 -4 8 -6 -3 -10 -14 -11 -23 0 -11 -3 -12 -6 -4 -2 6 -11 12 -19 12 -9 0
-12 5 -8 12 4 7 3 8 -5 4 -9 -6 -9 -12 1 -24 12 -15 11 -16 -4 -3 -10 7 -29
11 -43 9 -18 -4 -25 -1 -26 11 0 11 -3 8 -9 -6 -11 -26 -16 -28 -26 -11 -4 7
-3 8 4 4 8 -5 10 -1 5 9 -3 9 -9 12 -12 7 -9 -13 -81 -23 -81 -11 0 6 5 7 12
3 7 -4 8 -3 4 5 -6 9 -11 9 -24 -1 -12 -10 -14 -10 -8 0 4 6 2 12 -3 12 -16 0
-51 32 -45 42 3 4 -1 5 -9 2 -8 -3 -20 3 -28 13 -13 17 -13 17 6 3 18 -14 19
-14 6 2 -11 14 -17 15 -35 6 -20 -11 -20 -10 -6 7 14 17 13 18 -2 12 -13 -4
-15 -2 -11 10 4 11 2 14 -5 9 -7 -4 -12 -2 -12 5 0 8 -4 8 -15 -1 -13 -11 -14
-10 -9 5 6 14 4 16 -7 10 -8 -4 -11 -5 -7 0 10 10 -11 37 -23 29 -5 -3 -9 0
-9 6 0 6 -5 8 -11 5 -6 -4 -13 2 -16 14 -3 12 -12 21 -20 21 -8 0 -11 5 -8 10
3 6 1 10 -6 10 -7 0 -10 3 -7 6 4 3 16 0 28 -6 15 -8 20 -8 16 -1 -4 6 -3 11
3 11 5 0 11 -5 13 -12 3 -8 9 -6 19 4 13 14 15 14 21 -1 4 -9 7 -10 7 -3z
m2029 -3 c3 -2 12 1 20 8 10 8 13 8 9 1 -4 -7 0 -14 8 -17 8 -4 12 -1 9 6 -3
8 9 12 35 12 29 0 37 -3 33 -14 -4 -11 0 -11 18 2 22 15 26 15 48 1 14 -9 22
-12 18 -6 -3 5 3 12 14 15 11 3 18 1 15 -3 -3 -5 -1 -11 5 -15 5 -3 10 1 10 9
0 18 2 19 24 10 9 -3 13 -11 9 -18 -4 -6 1 -5 10 3 14 11 17 11 18 0 0 -8 4
-5 9 6 5 11 9 14 9 7 1 -9 6 -10 19 -4 21 11 45 4 36 -10 -5 -7 -2 -8 7 -2 8
4 23 9 34 10 11 1 25 3 30 4 22 5 36 -1 30 -12 -4 -7 1 -4 9 6 15 19 16 19 16
-8 0 -21 -4 -27 -15 -23 -8 4 -17 1 -21 -5 -5 -7 -2 -8 6 -3 9 6 11 4 6 -4 -5
-7 -14 -10 -22 -7 -9 3 -11 0 -7 -11 4 -11 2 -14 -5 -9 -8 4 -12 0 -12 -11 0
-15 -2 -16 -10 -3 -7 11 -10 11 -10 2 0 -8 -5 -10 -12 -6 -9 5 -8 2 1 -9 12
-15 12 -17 -3 -11 -10 4 -16 1 -16 -7 0 -7 -3 -10 -6 -6 -10 10 -36 -22 -28
-34 4 -7 3 -9 -4 -5 -6 3 -13 2 -17 -4 -3 -5 -15 -10 -26 -10 -11 0 -17 -4
-14 -10 3 -5 -1 -10 -10 -10 -10 0 -15 -5 -12 -14 4 -9 -2 -12 -20 -10 -17 2
-23 -2 -19 -11 5 -14 -22 -13 -47 1 -7 5 -6 0 3 -11 14 -17 14 -18 -7 -6 -18
9 -23 9 -23 -1 0 -6 -6 -4 -13 7 -11 14 -16 15 -22 5 -6 -9 -4 -11 5 -5 9 5
11 4 6 -3 -5 -9 -15 -7 -34 6 -14 9 -23 12 -19 5 4 -6 3 -14 -3 -18 -5 -3 -10
-1 -10 6 0 9 -3 9 -14 0 -11 -9 -16 -9 -22 0 -5 8 -3 9 6 4 9 -6 11 -4 6 4 -6
9 -12 8 -26 -4 -17 -15 -19 -15 -29 2 -7 13 -10 14 -11 4 0 -12 -3 -12 -12 -3
-9 9 -16 8 -29 -4 -13 -12 -19 -12 -25 -3 -5 8 -3 10 6 4 9 -6 11 -4 6 4 -6 9
-13 8 -29 -6 -11 -10 -17 -12 -13 -5 5 9 3 13 -5 11 -8 -1 -22 -1 -32 0 -18 1
-18 2 1 29 18 27 29 49 30 65 0 5 13 20 29 34 15 14 23 23 17 20 -6 -4 -11 0
-11 7 0 8 8 12 21 9 16 -4 17 -2 7 5 -9 7 -10 12 -2 16 6 4 8 13 4 19 -5 9 -3
9 8 0 13 -10 15 -8 13 17 -2 24 1 28 18 25 12 -3 23 -7 26 -10z m-2298 -75 c0
-5 -2 -10 -4 -10 -3 0 -8 5 -11 10 -3 6 -1 10 4 10 6 0 11 -4 11 -10z m2686
-248 c-17 -16 -18 -16 -5 5 7 12 15 20 18 17 3 -2 -3 -12 -13 -22z m-1961
-320 c-3 -3 -11 0 -18 7 -9 10 -8 11 6 5 10 -3 15 -9 12 -12z m690 -1512 c3
-6 -1 -7 -9 -4 -18 7 -21 14 -7 14 6 0 13 -4 16 -10z m150 -310 c3 -6 -1 -7
-9 -4 -18 7 -21 14 -7 14 6 0 13 -4 16 -10z"/>
<path d="M5910 4850 c-9 -6 -10 -10 -3 -10 6 0 15 5 18 10 8 12 4 12 -15 0z"/>
<path d="M5670 4099 c0 -5 5 -7 10 -4 6 3 10 8 10 11 0 2 -4 4 -10 4 -5 0 -10
-5 -10 -11z"/>
<path d="M5910 1605 c0 -8 2 -15 4 -15 2 0 6 7 10 15 3 8 1 15 -4 15 -6 0 -10
-7 -10 -15z"/>
</g>
</svg>
